<svg width="32" height="32" xmlns="http://www.w3.org/2000/svg">

 <g>
  <title>background</title>
  <rect fill="none" id="canvas_background" height="402" width="582" y="-1" x="-1"/>
 </g>
 <g>
  <title>Layer 1</title>
  <path id="svg_1" fill="#01514b" d="m16,1c-3.86,0 -7,3.09 -7,6.89c0,3.58 5.66,9.2 6.3,9.83c0.2,0.19 0.45,0.28 0.7,0.28s0.5,-0.09 0.7,-0.28c0.64,-0.63 6.3,-6.25 6.3,-9.83c0,-3.8 -3.14,-6.89 -7,-6.89z"/>
  <path id="svg_4" fill="#16BCD4" d="m10.5393,17.1082c-0.04,-0.0191 -0.09,-0.0318 -0.13,-0.0445c0.03,0 0.06,0.0127 0.08,0.0191c0.02,0.0063 0.04,0.0126 0.05,0.0254z"/>
  <path id="svg_5" fill="#16BCD4" d="m22.5093,17.0954c-0.05,-0.0191 -0.11,-0.0382 -0.17,-0.0509c0.03,0 0.06,0.0127 0.09,0.0191c0.03,0.0064 0.06,0.0191 0.08,0.0318z"/>
  <path id="svg_6" fill="#16BCD4" d="m30.9593,30.16l-1.98,-10.0545c-0.03,-0.1846 -0.19,-0.35 -0.44,-0.4518l-5.89,-2.4945c-0.04,-0.0255 -0.09,-0.0445 -0.14,-0.0637c-0.05,-0.0191 -0.11,-0.0382 -0.17,-0.0509c-0.02,-0.0127 -0.05,-0.0191 -0.09,-0.0255c-0.03,0 -0.06,-0.0064 -0.09,-0.0064c-0.05,-0.0127 -0.11,-0.0127 -0.17,-0.0127c-0.08,0 -0.17,0.0064 -0.26,0.0254c-0.05,0.0064 -0.11,0.0191 -0.16,0.0382c-0.03,0 -0.06,0.0127 -0.08,0.0191c-0.02,0.0064 -0.04,0.0127 -0.05,0.0254l-0.02,0.0064l-5.43,2.3036l-5.43,-2.3036l-0.02,-0.0064c-0.04,-0.0191 -0.09,-0.0318 -0.13,-0.0445c-0.05,-0.0191 -0.11,-0.0318 -0.16,-0.0382c-0.09,-0.0191 -0.18,-0.0254 -0.26,-0.0254c-0.03,0 -0.06,0 -0.08,0.0064c-0.03,-0.0064 -0.06,0 -0.08,0.0063c-0.03,0 -0.07,0.0064 -0.1,0.0064c-0.04,0.0064 -0.07,0.0127 -0.09,0.0255l-0.01,0c-0.03,0 -0.05,0.0127 -0.08,0.0191c-0.03,0.0064 -0.06,0.0191 -0.08,0.0318c-0.05,0.0191 -0.1,0.0382 -0.14,0.0637l-5.89,2.4945c-0.25,0.1018 -0.41,0.2673 -0.44,0.4518l-2,10.1818c-0.05,0.2355 0.12,0.4709 0.44,0.6045c0.16,0.07 0.36,0.1082 0.55,0.1082c0.17,0 0.34,-0.0255 0.5,-0.0827l6.5,-2.3609l0.09,0.0318l6.41,2.3291c0.03,0.0127 0.06,0.0191 0.1,0.0254c0.05,0.0191 0.11,0.0318 0.1801,0.0382c0.0699,0.0127 0.15,0.0191 0.22,0.0191s0.14,-0.0064 0.2,-0.0127c0.06,-0.0127 0.12,-0.0254 0.18,-0.0382c0.01,0 0.01,-0.0064 0.02,-0.0064c0.04,-0.0064 0.0699,-0.0127 0.1,-0.0254l6.41,-2.3291l0,-0.07l0.09,0.0382l6.5,2.3609c0.16,0.0573 0.33,0.0827 0.5,0.0827c0.01,0 0.02,0 0.02,0c0.55,0 1,-0.2864 1,-0.6364c-0.0001,-0.07 -0.0201,-0.14 -0.0501,-0.2036z"/>
  <path id="svg_8" fill="#2197F3" d="m31.0093,30.3636c0,0.35 -0.45,0.6364 -1,0.6364c0,0 -0.01,0 -0.02,0c-0.17,0 -0.34,-0.0255 -0.5,-0.0827l-6.5,-2.3609l-0.09,-0.0382l-0.91,-11.5182c0.06,0 0.12,0 0.17,0.0127c0.03,0 0.06,0.0064 0.09,0.0064c0.04,0.0064 0.07,0.0127 0.09,0.0255c0.06,0.0127 0.12,0.0318 0.17,0.0509c0.05,0.0191 0.1,0.0382 0.14,0.0637l5.89,2.4945c0.25,0.1018 0.41,0.2673 0.44,0.4518l1.98,10.0545c0.03,0.0636 0.05,0.1336 0.05,0.2036z"/>
  <path id="svg_9" fill="#2197F3" d="m21.5693,17.0636c-0.04,0.0127 -0.09,0.0255 -0.13,0.0445c0.01,-0.0127 0.03,-0.0191 0.05,-0.0254c0.02,-0.0063 0.05,-0.0191 0.08,-0.0191z"/>
  <path id="svg_10" fill="#2197F3" d="m15.9893,19.4182l0,11.5818c-0.07,0 -0.15,-0.0064 -0.22,-0.0191c-0.07,-0.0064 -0.13,-0.0191 -0.1801,-0.0382c-0.04,-0.0064 -0.0699,-0.0127 -0.1,-0.0254l-6.41,-2.3291l0,-0.07l0.9101,-11.5182c0.08,0 0.17,0.0064 0.26,0.0254c0.05,0.0064 0.11,0.0191 0.16,0.0382c0.04,0.0127 0.09,0.0255 0.13,0.0445l0.02,0.0064l5.43,2.3037z"/>
  <path id="svg_11" fill="#2197F3" d="m18,7.89c0,1.11 -0.9,2 -2,2s-2,-0.89 -2,-2c0,-1.1 0.9,-2 2,-2s2,0.9 2,2z"/>
  <g id="Maps"/>
 </g>
</svg>