<?xml version="1.0" ?><!DOCTYPE svg  PUBLIC '-//W3C//DTD SVG 1.1//EN'  'http://www.w3.org/Graphics/SVG/1.1/DTD/svg11.dtd'><svg height="512px" style="enable-background:new 0 0 512 512;" version="1.1" viewBox="0 0 512 512" width="512px" xml:space="preserve" xmlns="http://www.w3.org/2000/svg" xmlns:xlink="http://www.w3.org/1999/xlink"><g id="whatsapp__x2C__icons__x2C__logo__x2C__social__x2C__media"><g><path d="M425.609,86.349C382.172,42.901,322.12,16.07,255.955,16.07    c-66.292,0-126.344,26.831-169.649,70.278c-43.443,43.445-70.277,103.359-70.277,169.652c0,66.29,26.834,126.209,70.277,169.652    c43.306,43.447,103.357,70.276,169.649,70.276c66.165,0,126.217-26.829,169.654-70.276    c43.443-43.443,70.287-103.362,70.287-169.652C495.896,189.708,469.053,129.794,425.609,86.349z M412.328,412.499    c-39.989,39.993-95.252,64.702-156.373,64.702c-61.111,0-116.374-24.709-156.5-64.702    c-39.983-40.117-64.693-95.385-64.693-156.498c0-61.111,24.71-116.379,64.693-156.367c40.126-39.988,95.389-64.835,156.5-64.835    c61.121,0,116.384,24.847,156.373,64.835c39.988,39.988,64.83,95.256,64.83,156.367    C477.158,317.114,452.316,372.382,412.328,412.499z" style="fill:#262626;"/><path d="M313.215,276.994c-3.047-1.463-17.395-8.636-20.058-9.7c-2.93-0.795-4.784-1.463-6.776,1.594    c-1.864,2.925-7.576,9.431-9.293,11.291c-1.732,2.129-3.464,2.262-6.246,0.927c-3.185-1.457-12.625-4.514-23.782-14.606    c-8.9-7.844-14.877-17.273-16.472-20.065c-1.595-3.188-0.274-4.512,1.192-6.241c1.462-1.195,3.052-3.189,4.519-5.052    c0.397-0.393,0.795-0.795,1.06-1.327c0.8-1.197,1.192-2.127,1.859-3.454c1.06-1.992,0.663-3.72-0.265-5.049    c-0.53-1.462-6.506-16.074-9.038-21.79c-2.385-5.972-4.916-4.914-6.501-4.914c-1.869,0-3.724-0.263-5.716-0.263    c-2.134,0-5.182,0.663-7.836,3.72c-2.929,2.922-10.5,9.832-10.5,24.441c0,3.322,0.663,6.776,1.727,9.836    c2.792,10.494,9.431,18.863,10.367,20.327c1.462,1.987,20.323,32.415,50.342,44.104c30.161,11.692,30.161,7.703,35.475,7.306    s17.403-6.908,19.931-13.949c2.39-6.776,2.39-12.615,1.595-13.949C318.131,279.251,316.14,278.318,313.215,276.994z" style="fill:#262626;"/><path d="M258.085,133.644c-64.561,0-117.312,50.349-119.966,113.987c-0.265,1.595-0.265,3.454-0.265,5.179    c0,22.457,6.374,43.58,17.271,61.646l-21.79,64.041l66.69-21.128c17.271,9.431,37.069,14.749,58.06,14.749    c66.43,0,120.358-53.275,120.358-119.308c0-1.058-0.128-1.859-0.128-2.92C376.588,185.324,323.445,133.644,258.085,133.644z     M258.085,353.247c-20.461,0-39.587-6.109-55.533-16.604l-38.791,12.355l12.487-37.334    c-12.085-16.477-19.264-36.933-19.264-58.854c0-3.319,0.133-6.376,0.53-9.698c5.049-50.879,48.222-90.6,100.57-90.6    c53.138,0,96.846,40.783,100.83,92.462c0.27,2.657,0.27,5.313,0.27,7.836C359.185,308.077,313.882,353.247,258.085,353.247z" style="fill:#262626;"/></g></g><g id="Layer_1"/></svg>